<svg width="193" height="60" viewBox="0 0 193 60" fill="none" xmlns="http://www.w3.org/2000/svg">
<path d="M54.4336 47.3438L38.1445 33.5742C38.8867 32.4023 39.2969 30.5859 39.375 28.125C39.4531 25.3516 38.3594 22.832 36.0938 20.5664C33.3203 17.793 30.0391 16.0352 26.25 15.293C22.4609 14.5508 19.4531 15.1953 17.2266 17.2266C15.1562 19.4922 14.502 22.5195 15.2637 26.3086C16.0254 30.0977 17.793 33.3789 20.5664 36.1523C22.7148 38.3008 25.2344 39.375 28.125 39.375C30.4297 39.375 32.2461 38.9844 33.5742 38.2031L47.4023 54.4336C42.168 58.1445 36.3672 60 30 60C25.9375 60 22.0508 59.209 18.3398 57.627C14.6289 56.0449 11.4355 53.916 8.75977 51.2402C6.08398 48.5645 3.95508 45.3711 2.37305 41.6602C0.791016 37.9492 0 34.0625 0 30C0 25.9375 0.791016 22.0508 2.37305 18.3398C3.95508 14.6289 6.08398 11.4355 8.75977 8.75977C11.4355 6.08398 14.6289 3.95508 18.3398 2.37305C22.0508 0.791016 25.9375 0 30 0C34.0625 0 37.9492 0.791016 41.6602 2.37305C45.3711 3.95508 48.5645 6.08398 51.2402 8.75977C53.916 11.4355 56.0449 14.6289 57.627 18.3398C59.209 22.0508 60 25.9375 60 30C60 36.3672 58.1445 42.1484 54.4336 47.3438Z" fill="#1C4648"/>
<path d="M83.48 40.42C81.78 40.42 80.13 40.21 78.53 39.79C76.93 39.37 75.63 38.81 74.63 38.11L76.58 33.73C77.52 34.35 78.61 34.85 79.85 35.23C81.09 35.61 82.31 35.8 83.51 35.8C85.79 35.8 86.93 35.23 86.93 34.09C86.93 33.49 86.6 33.05 85.94 32.77C85.3 32.47 84.26 32.16 82.82 31.84C81.24 31.5 79.92 31.14 78.86 30.76C77.8 30.36 76.89 29.73 76.13 28.87C75.37 28.01 74.99 26.85 74.99 25.39C74.99 24.11 75.34 22.96 76.04 21.94C76.74 20.9 77.78 20.08 79.16 19.48C80.56 18.88 82.27 18.58 84.29 18.58C85.67 18.58 87.03 18.74 88.37 19.06C89.71 19.36 90.89 19.81 91.91 20.41L90.08 24.82C88.08 23.74 86.14 23.2 84.26 23.2C83.08 23.2 82.22 23.38 81.68 23.74C81.14 24.08 80.87 24.53 80.87 25.09C80.87 25.65 81.19 26.07 81.83 26.35C82.47 26.63 83.5 26.92 84.92 27.22C86.52 27.56 87.84 27.93 88.88 28.33C89.94 28.71 90.85 29.33 91.61 30.19C92.39 31.03 92.78 32.18 92.78 33.64C92.78 34.9 92.43 36.04 91.73 37.06C91.03 38.08 89.98 38.9 88.58 39.52C87.18 40.12 85.48 40.42 83.48 40.42ZM105.724 19C107.624 19 109.274 19.32 110.674 19.96C112.074 20.58 113.154 21.48 113.914 22.66C114.674 23.82 115.054 25.19 115.054 26.77C115.054 28.35 114.674 29.72 113.914 30.88C113.154 32.04 112.074 32.94 110.674 33.58C109.274 34.2 107.624 34.51 105.724 34.51H102.064V40H96.1238V19H105.724ZM105.364 29.83C106.584 29.83 107.504 29.57 108.124 29.05C108.744 28.51 109.054 27.75 109.054 26.77C109.054 25.79 108.744 25.03 108.124 24.49C107.504 23.95 106.584 23.68 105.364 23.68H102.064V29.83H105.364ZM129.433 40.42C127.213 40.42 125.213 39.95 123.433 39.01C121.673 38.07 120.283 36.77 119.263 35.11C118.263 33.45 117.763 31.58 117.763 29.5C117.763 27.42 118.263 25.55 119.263 23.89C120.283 22.23 121.673 20.93 123.433 19.99C125.213 19.05 127.213 18.58 129.433 18.58C131.653 18.58 133.643 19.05 135.403 19.99C137.183 20.93 138.573 22.23 139.573 23.89C140.593 25.55 141.103 27.42 141.103 29.5C141.103 31.58 140.593 33.45 139.573 35.11C138.573 36.77 137.183 38.07 135.403 39.01C133.643 39.95 131.653 40.42 129.433 40.42ZM129.433 35.5C130.493 35.5 131.453 35.25 132.313 34.75C133.173 34.25 133.853 33.55 134.353 32.65C134.853 31.73 135.103 30.68 135.103 29.5C135.103 28.32 134.853 27.28 134.353 26.38C133.853 25.46 133.173 24.75 132.313 24.25C131.453 23.75 130.493 23.5 129.433 23.5C128.373 23.5 127.413 23.75 126.553 24.25C125.693 24.75 125.013 25.46 124.513 26.38C124.013 27.28 123.763 28.32 123.763 29.5C123.763 30.68 124.013 31.73 124.513 32.65C125.013 33.55 125.693 34.25 126.553 34.75C127.413 35.25 128.373 35.5 129.433 35.5ZM155.404 40.42C153.184 40.42 151.184 39.95 149.404 39.01C147.644 38.07 146.254 36.77 145.234 35.11C144.234 33.45 143.734 31.58 143.734 29.5C143.734 27.42 144.234 25.55 145.234 23.89C146.254 22.23 147.644 20.93 149.404 19.99C151.184 19.05 153.184 18.58 155.404 18.58C157.624 18.58 159.614 19.05 161.374 19.99C163.154 20.93 164.544 22.23 165.544 23.89C166.564 25.55 167.074 27.42 167.074 29.5C167.074 31.58 166.564 33.45 165.544 35.11C164.544 36.77 163.154 38.07 161.374 39.01C159.614 39.95 157.624 40.42 155.404 40.42ZM155.404 35.5C156.464 35.5 157.424 35.25 158.284 34.75C159.144 34.25 159.824 33.55 160.324 32.65C160.824 31.73 161.074 30.68 161.074 29.5C161.074 28.32 160.824 27.28 160.324 26.38C159.824 25.46 159.144 24.75 158.284 24.25C157.424 23.75 156.464 23.5 155.404 23.5C154.344 23.5 153.384 23.75 152.524 24.25C151.664 24.75 150.984 25.46 150.484 26.38C149.984 27.28 149.734 28.32 149.734 29.5C149.734 30.68 149.984 31.73 150.484 32.65C150.984 33.55 151.664 34.25 152.524 34.75C153.384 35.25 154.344 35.5 155.404 35.5ZM190.765 19V40H185.875L176.605 28.81V40H170.785V19H175.675L184.945 30.19V19H190.765Z" fill="#1C4648"/>
</svg>
